<svg width="50" height="50" viewBox="0 0 50 50" fill="none" xmlns="http://www.w3.org/2000/svg">
<g clip-path="url(#clip0_6350_556)">
<path d="M8.78374 5.52137C9.02562 5.52427 9.2673 5.52337 9.5092 5.52211C9.66458 5.52272 9.81997 5.52354 9.97535 5.52459C10.0826 5.52416 10.0826 5.52416 10.192 5.52372C10.4944 5.52935 10.7115 5.5504 10.9796 5.69547C11.225 5.95901 11.2243 6.19172 11.2304 6.5435C11.099 6.83135 11.0267 6.98713 10.7421 7.12944C10.5041 7.14003 10.2684 7.1452 10.0303 7.1466C9.88227 7.14887 9.73426 7.15123 9.58625 7.15366C9.35469 7.15704 9.12318 7.15993 8.8916 7.16127C6.79683 7.17571 4.85834 7.65674 3.32023 9.18022C1.39228 11.4099 1.55815 13.8049 1.46476 16.6997C15.9667 16.6997 30.4687 16.6997 45.4101 16.6997C45.4881 13.6951 45.4881 13.6951 44.6593 10.8099C44.6252 10.745 44.5911 10.6801 44.5559 10.6132C43.6951 9.02489 42.3841 8.01546 40.6894 7.44286C39.5223 7.11763 38.3196 7.18716 37.1184 7.19107C36.8622 7.19083 36.6059 7.19045 36.3496 7.18995C35.7998 7.18906 35.25 7.18919 34.7002 7.18997C33.9048 7.19107 33.1094 7.19018 32.3139 7.18874C31.0224 7.18643 29.7308 7.18512 28.4393 7.18473C28.3622 7.1847 28.285 7.18468 28.2056 7.18465C27.3439 7.1844 26.4823 7.18435 25.6207 7.18445C25.3076 7.18448 24.9945 7.18451 24.6813 7.18454C24.6041 7.18454 24.5268 7.18455 24.4472 7.18455C23.1592 7.18461 21.8712 7.18316 20.5833 7.18055C19.7896 7.179 18.9959 7.17878 18.2022 7.18027C17.595 7.1813 16.9877 7.18035 16.3805 7.17865C16.1312 7.17829 15.882 7.17859 15.6328 7.17961C15.2932 7.18091 14.9537 7.17983 14.6142 7.17815C14.515 7.1791 14.4159 7.18006 14.3137 7.18105C13.8846 7.17663 13.6416 7.17062 13.269 6.94329C13.0724 6.72377 13.0191 6.63873 13.0248 6.34819C13.0236 6.28373 13.0223 6.21928 13.021 6.15287C13.1274 5.83244 13.2866 5.74233 13.5741 5.56694C13.9214 5.50876 14.2652 5.51468 14.6166 5.51799C14.776 5.51718 14.776 5.51718 14.9386 5.51635C15.2953 5.51502 15.6521 5.51649 16.0088 5.51794C16.2644 5.51757 16.5199 5.51704 16.7754 5.51634C17.3982 5.51498 18.0209 5.51572 18.6436 5.51719C19.3697 5.51884 20.0958 5.51852 20.8219 5.51816C22.1187 5.51758 23.4155 5.51897 24.7123 5.52137C25.9684 5.52371 27.2244 5.5244 28.4805 5.52338C29.8493 5.52226 31.2181 5.52208 32.5869 5.52348C32.7333 5.52363 32.8796 5.52378 33.026 5.52393C33.098 5.524 33.17 5.52408 33.2441 5.52415C33.7491 5.52462 34.2541 5.52444 34.7591 5.52402C35.3761 5.52354 35.9931 5.52414 36.6101 5.52606C36.9244 5.52702 37.2386 5.52737 37.5529 5.52676C40.2961 5.52205 42.5196 5.93465 44.5983 7.87674C46.5583 9.86656 47.0156 12.205 46.9956 14.9013C46.9943 15.0195 46.9931 15.1378 46.9918 15.2596C46.9881 15.6351 46.987 16.0104 46.9865 16.3859C46.9851 17.4521 46.9817 18.5182 46.9709 19.5843C46.9643 20.2397 46.9629 20.895 46.9644 21.5504C46.964 21.7985 46.9619 22.0466 46.9578 22.2947C46.8834 23.8817 46.8834 23.8817 47.5392 25.2663C47.708 25.4386 47.8771 25.6104 48.0468 25.7818C49.8364 28.3676 50.4182 31.7404 49.8898 34.8159C49.4371 37.0256 48.3587 39.3647 46.6796 40.9185C46.2965 41.1544 46.0424 41.1195 45.6054 41.0162C45.4162 40.9124 45.4162 40.9124 45.3124 40.7232C45.2589 40.2284 45.2442 40.0394 45.5344 39.6249C45.634 39.5197 45.7351 39.4159 45.8373 39.3133C46.9257 38.129 47.5947 36.7892 48.0468 35.2544C48.0799 35.1515 48.113 35.0485 48.1471 34.9424C48.8373 32.4042 48.2988 29.5652 47.0275 27.3077C46.7179 26.8009 46.379 26.3328 45.996 25.8794C45.895 25.7588 45.895 25.7588 45.7919 25.6357C44.5748 24.2304 42.9771 23.2262 41.2109 22.6568C41.1472 22.6362 41.0835 22.6157 41.0179 22.5946C38.3253 21.7725 35.5056 22.254 33.0444 23.5113C31.6227 24.3233 30.362 25.468 29.4921 26.856C29.4351 26.944 29.3781 27.032 29.3193 27.1226C27.839 29.5124 27.5025 32.3446 28.1249 35.0591C28.4977 36.5728 29.2362 37.9987 30.2734 39.1607C30.3721 39.2802 30.3721 39.2802 30.4729 39.4022C32.1499 41.3785 34.6535 42.5105 37.207 42.774C39.1078 42.9185 41.0808 42.594 42.7759 41.6921C43.0792 41.5504 43.3233 41.5668 43.6523 41.6021C43.8903 41.7486 43.8903 41.7486 44.0429 41.9927C44.1024 42.2666 44.1274 42.5052 44.0429 42.774C42.5032 44.2677 39.6513 44.4799 37.6247 44.4555C35.9071 44.4052 34.2431 43.9365 32.7148 43.1646C32.5777 43.0968 32.5777 43.0968 32.4378 43.0276C30.6235 42.0893 29.1527 40.6535 28.0273 38.9654C27.7553 38.9361 27.5049 38.9261 27.2327 38.9284C27.108 38.9277 27.108 38.9277 26.9807 38.9271C26.7005 38.9259 26.4202 38.9269 26.1399 38.9278C25.9396 38.9274 25.7392 38.9269 25.5389 38.9262C25.1064 38.9251 24.6738 38.9248 24.2413 38.9253C23.5562 38.9259 22.8711 38.9244 22.1859 38.9225C20.7293 38.9188 19.2727 38.9175 17.8161 38.9165C16.2486 38.9155 14.6811 38.9139 13.1136 38.9096C12.4339 38.9079 11.7543 38.9075 11.0746 38.9082C10.6492 38.9083 10.2238 38.9073 9.79845 38.9059C9.60277 38.9055 9.4071 38.9056 9.21142 38.9063C6.57442 38.9144 4.30037 38.4225 2.34367 36.524C2.28375 36.4712 2.22383 36.4185 2.16209 36.3641C0.886511 35.2027 0.0553854 33.314 -0.0274092 31.6078C-0.042337 31.1088 -0.040864 30.6098 -0.0395388 30.1106C-0.0400967 29.9195 -0.0407771 29.7285 -0.0415698 29.5375C-0.0433125 29.0219 -0.0432081 28.5064 -0.0426494 27.9909C-0.0423462 27.5589 -0.042944 27.127 -0.0435323 26.6951C-0.044901 25.6752 -0.0447539 24.6553 -0.0436396 23.6355C-0.0425191 22.5869 -0.0438924 21.5383 -0.0465103 20.4897C-0.0486807 19.5862 -0.049321 18.6826 -0.0487492 17.7791C-0.0484215 17.2409 -0.0486463 16.7027 -0.0503361 16.1645C-0.0518573 15.6579 -0.0514487 15.1514 -0.0496224 14.6449C-0.0492653 14.4602 -0.0495577 14.2755 -0.050588 14.0908C-0.0579334 12.6638 0.0700404 11.298 0.762859 10.0164C0.796525 9.95176 0.830192 9.88712 0.864878 9.82051C1.14299 9.30064 1.4676 8.84331 1.85539 8.39897C1.90373 8.33565 1.95207 8.27233 2.00187 8.20709C3.61811 6.16658 6.30235 5.48891 8.78374 5.52137ZM1.46476 18.2622C1.46476 20.1958 1.46476 22.1294 1.46476 24.1216C5.04687 24.1388 8.62893 24.1533 12.2111 24.1615C12.634 24.1625 13.0569 24.1635 13.4799 24.1645C13.6062 24.1648 13.6062 24.1648 13.735 24.1652C15.0982 24.1686 16.4614 24.1747 17.8246 24.1819C19.2234 24.1892 20.6222 24.1935 22.0211 24.1951C22.8842 24.1962 23.7473 24.1996 24.6104 24.2059C25.2023 24.2101 25.7942 24.2113 26.3862 24.2103C26.7277 24.2098 27.0691 24.2106 27.4106 24.2148C27.7811 24.2186 28.1514 24.2177 28.522 24.2156C28.6833 24.219 28.6833 24.219 28.8479 24.2225C29.4162 24.2136 29.7197 24.1522 30.1288 23.7427C30.2422 23.6087 30.3555 23.4746 30.4687 23.3404C30.6969 23.1477 30.9357 22.977 31.1828 22.8094C31.2491 22.7643 31.3154 22.7193 31.3836 22.6729C34.0823 20.8946 37.4252 20.2208 40.6066 20.8623C42.3818 21.2586 43.9014 22.0416 45.4101 23.0474C45.4101 21.4683 45.4101 19.8892 45.4101 18.2622C30.9081 18.2622 16.4062 18.2622 1.46476 18.2622ZM1.46476 25.6841C1.15868 30.9171 1.15868 30.9171 3.38127 35.3765C4.72635 36.6874 6.38473 37.3241 8.2529 37.317C8.33404 37.317 8.41517 37.3171 8.49877 37.3172C8.76926 37.3174 9.03975 37.3168 9.31024 37.3163C9.50469 37.3163 9.69913 37.3163 9.89358 37.3163C10.4205 37.3164 10.9475 37.3158 11.4745 37.3151C12.0255 37.3145 12.5766 37.3144 13.1276 37.3143C14.1707 37.314 15.2138 37.3132 16.2569 37.3123C17.4446 37.3112 18.6323 37.3106 19.82 37.3101C22.2628 37.3091 24.7056 37.3074 27.1484 37.3052C27.1281 37.238 27.1078 37.1708 27.087 37.1016C27.0605 37.0136 27.034 36.9255 27.0067 36.8348C26.9672 36.7038 26.9672 36.7038 26.9269 36.5701C26.8023 36.1494 26.7006 35.7239 26.599 35.2972C26.5779 35.2111 26.5567 35.1251 26.535 35.0364C25.7469 31.7408 26.6128 28.5299 28.3202 25.6841C19.4579 25.6841 10.5956 25.6841 1.46476 25.6841Z" fill="#818285"/>
<path d="M43.6523 28.2236C44.3445 28.6838 44.733 29.2846 44.9817 30.0737C45.1253 30.8363 45.0771 31.63 44.7265 32.3252C44.2054 33.0628 43.5747 33.7036 42.9386 34.3412C42.8433 34.4372 42.748 34.5331 42.6527 34.6291C42.4545 34.8285 42.2559 35.0274 42.0571 35.2261C41.8042 35.479 41.5526 35.7332 41.3014 35.9878C41.1056 36.1858 40.9089 36.3829 40.7119 36.5797C40.5741 36.7179 40.4372 36.8569 40.3003 36.996C39.4072 37.8828 38.6702 38.3177 37.4017 38.3262C36.4858 38.3026 35.8165 37.8966 35.1806 37.2629C35.1101 37.187 35.0397 37.1111 34.967 37.0329C34.7862 36.8394 34.6019 36.67 34.3994 36.5C33.9706 36.1329 33.5785 35.7317 33.183 35.3296C32.8937 35.0371 32.6018 34.763 32.2815 34.5041C31.7847 34.0831 31.359 33.465 31.25 32.8134C31.1715 31.7076 31.2504 30.9199 31.9702 30.0485C32.5012 29.479 33.0557 29.1446 33.8394 29.0697C35.0974 29.0565 35.7874 29.2881 36.6985 30.1576C36.7696 30.2284 36.8408 30.2991 36.914 30.372C36.9981 30.454 36.9981 30.454 37.0838 30.5376C37.1914 30.6437 37.2972 30.7517 37.4023 30.8603C37.7808 30.7062 38.0106 30.4641 38.2915 30.1718C38.3886 30.0722 38.4857 29.9727 38.5828 29.8733C38.7338 29.7174 38.8845 29.5613 39.0346 29.4046C40.2969 28.0907 41.8545 27.1699 43.6523 28.2236ZM40.3202 30.3758C40.1873 30.5125 40.0543 30.649 39.9214 30.7855C39.714 31.0002 39.5072 31.2152 39.3011 31.4311C39.1009 31.6401 38.8989 31.8473 38.6966 32.0543C38.6358 32.1191 38.5749 32.1839 38.5122 32.2507C38.212 32.556 38.043 32.701 37.6203 32.8149C37.0511 32.8123 36.7439 32.4558 36.3617 32.0745C36.1724 31.8793 35.9847 31.6826 35.7975 31.4853C35.392 31.0679 35.032 30.7323 34.4391 30.6227C33.9148 30.6217 33.6103 30.6958 33.2031 31.0556C32.8475 31.458 32.7682 31.7638 32.7606 32.282C32.9019 32.9312 33.3119 33.3471 33.7951 33.7656C33.9087 33.867 34.0222 33.9686 34.1354 34.0704C34.192 34.1211 34.2486 34.1718 34.3069 34.2241C34.5599 34.4559 34.7995 34.6991 35.0403 34.9436C35.4538 35.3613 35.8782 35.7557 36.3281 36.1337C36.3846 36.1821 36.4411 36.2304 36.4994 36.2802C36.8672 36.5922 37.0795 36.7378 37.561 36.7624C37.6408 36.7683 37.7206 36.7742 37.8029 36.7803C38.603 36.6089 39.2476 35.7819 39.8021 35.2247C39.8888 35.1383 39.9754 35.0519 40.0646 34.9628C40.2929 34.7347 40.5207 34.5061 40.7484 34.2773C40.8875 34.1379 41.0269 33.9988 41.1665 33.8599C41.4365 33.5911 41.7059 33.3216 41.975 33.0519C42.0576 32.9696 42.1402 32.8874 42.2253 32.8027C43.0951 31.9549 43.0951 31.9549 43.4936 30.842C43.446 30.3579 43.2824 30.0559 42.9687 29.6884C42.587 29.417 42.2643 29.3622 41.8091 29.3566C41.1536 29.4795 40.7581 29.9138 40.3202 30.3758Z" fill="#818285"/>
<path d="M8.52453 27.7827C8.67634 27.7827 8.82815 27.7825 8.97996 27.7822C9.29629 27.7821 9.61258 27.7833 9.92891 27.7856C10.3322 27.7883 10.7355 27.7881 11.1388 27.7868C11.4516 27.7861 11.7645 27.7869 12.0773 27.7881C12.2259 27.7885 12.3746 27.7886 12.5232 27.7882C13.5738 27.7867 14.4847 27.833 15.3322 28.5147C16.0234 29.2089 16.3958 29.8463 16.4309 30.834C16.4207 31.6877 16.123 32.3913 15.5333 33.0107C14.5802 33.9223 13.6005 33.9313 12.3541 33.9281C12.1979 33.9286 12.0416 33.9291 11.8854 33.9297C11.5591 33.9306 11.2329 33.9303 10.9066 33.9294C10.4908 33.9282 10.0751 33.9302 9.65929 33.9331C9.33697 33.9349 9.01467 33.9348 8.69235 33.9343C8.53916 33.9343 8.38596 33.9348 8.23277 33.9361C7.0978 33.9438 6.11434 33.8461 5.25686 33.0218C4.61009 32.2603 4.3715 31.4457 4.43593 30.4591C4.55991 29.6206 4.94585 28.8835 5.63157 28.3701C6.5299 27.7855 7.48835 27.7741 8.52453 27.7827ZM6.15255 30.0955C6.00322 30.5155 5.99071 30.9066 6.05489 31.3467C6.31009 31.848 6.59585 32.1455 7.12911 32.3233C7.3401 32.334 7.5514 32.3388 7.76266 32.3406C7.82653 32.3412 7.8904 32.3419 7.95621 32.3425C8.16739 32.3445 8.37857 32.3456 8.58976 32.3466C8.66202 32.347 8.73428 32.3474 8.80874 32.3478C9.19123 32.3498 9.57371 32.3512 9.95621 32.3521C10.3506 32.3532 10.7449 32.3566 11.1393 32.3604C11.4432 32.363 11.747 32.3638 12.0509 32.3642C12.1962 32.3646 12.3416 32.3658 12.4869 32.3676C12.6907 32.37 12.8944 32.3699 13.0983 32.3692C13.272 32.3701 13.272 32.3701 13.4491 32.3709C13.9348 32.2988 14.2317 32.05 14.5815 31.7191C14.8087 31.3404 14.8626 31.0047 14.844 30.5655C14.6754 30.05 14.391 29.8019 13.965 29.4913C13.6404 29.3831 13.3927 29.3786 13.0506 29.3748C12.9221 29.3732 12.7937 29.3716 12.6613 29.37C12.5208 29.3689 12.3802 29.3679 12.2397 29.3669C12.1687 29.3664 12.0978 29.3659 12.0247 29.3653C11.6489 29.3627 11.2732 29.3608 10.8974 29.3594C10.5874 29.3581 10.2774 29.3554 9.96741 29.3514C9.59221 29.3466 9.21707 29.3442 8.84184 29.3435C8.69939 29.3428 8.55693 29.3414 8.41449 29.339C7.48051 29.3245 6.80754 29.3791 6.15255 30.0955Z" fill="#818285"/>
</g>
<defs>
<clipPath id="clip0_6350_556">
<rect width="50" height="50" fill="white"/>
</clipPath>
</defs>
</svg>
