<svg width="48" height="50" viewBox="0 0 48 50" fill="none" xmlns="http://www.w3.org/2000/svg">
<path d="M32.6982 30.9805C32.8308 30.9796 32.9635 30.9787 33.1002 30.9778C33.5376 30.9755 33.975 30.977 34.4125 30.9787C34.717 30.9784 35.0216 30.9779 35.3262 30.9773C35.9641 30.9765 36.602 30.9776 37.2399 30.98C38.0572 30.9829 38.8744 30.9812 39.6917 30.9782C40.3205 30.9763 40.9492 30.9769 41.578 30.9782C41.8794 30.9786 42.1807 30.9782 42.4821 30.977C42.9034 30.9757 43.3245 30.9776 43.7458 30.9805C43.9323 30.9789 43.9323 30.9789 44.1225 30.9774C44.8416 30.9863 45.2854 31.0525 45.8411 31.5552C46.4361 32.2153 46.4217 32.809 46.4147 33.6545C46.4156 33.7874 46.4165 33.9203 46.4174 34.0572C46.4196 34.4955 46.4182 34.9337 46.4165 35.372C46.4168 35.6772 46.4173 35.9823 46.4179 36.2875C46.4187 36.9266 46.4176 37.5657 46.4152 38.2048C46.4123 39.0237 46.414 39.8424 46.417 40.6613C46.4189 41.2913 46.4183 41.9213 46.417 42.5513C46.4166 42.8532 46.417 43.1551 46.4182 43.457C46.4195 43.8791 46.4175 44.3011 46.4147 44.7232C46.4157 44.8477 46.4168 44.9723 46.4178 45.1006C46.4089 45.8211 46.3429 46.2657 45.8411 46.8224C45.1822 47.4186 44.5897 47.4042 43.7458 47.3972C43.6132 47.3981 43.4805 47.399 43.3438 47.3999C42.9064 47.4021 42.469 47.4006 42.0315 47.3989C41.727 47.3993 41.4224 47.3997 41.1178 47.4004C40.4799 47.4011 39.8421 47.4 39.2042 47.3977C38.3868 47.3948 37.5696 47.3964 36.7523 47.3995C36.1235 47.4013 35.4948 47.4007 34.866 47.3994C34.5646 47.3991 34.2633 47.3995 33.962 47.4007C33.5407 47.402 33.1195 47.4 32.6982 47.3972C32.5739 47.3982 32.4496 47.3992 32.3215 47.4003C31.6024 47.3913 31.1586 47.3252 30.603 46.8224C30.0079 46.1623 30.0223 45.5687 30.0293 44.7232C30.0284 44.5903 30.0275 44.4574 30.0266 44.3204C30.0244 43.8821 30.0258 43.4439 30.0276 43.0056C30.0272 42.7005 30.0267 42.3953 30.0261 42.0902C30.0253 41.4511 30.0264 40.812 30.0288 40.1728C30.0317 39.354 30.03 38.5352 30.027 37.7163C30.0252 37.0863 30.0257 36.4564 30.0271 35.8264C30.0274 35.5245 30.027 35.2226 30.0258 34.9206C30.0245 34.4985 30.0265 34.0766 30.0293 33.6545C30.0283 33.5299 30.0272 33.4054 30.0262 33.2771C30.0351 32.5566 30.1011 32.1119 30.603 31.5552C31.2618 30.9591 31.8543 30.9735 32.6982 30.9805ZM34.1585 35.1176C34.1585 37.8046 34.1585 40.4916 34.1585 43.2601C36.8404 43.2601 39.5223 43.2601 42.2855 43.2601C42.2855 40.573 42.2855 37.886 42.2855 35.1176C39.6036 35.1176 36.9217 35.1176 34.1585 35.1176Z" fill="#818285"/>
<path d="M4.25386 30.9805C4.38651 30.9796 4.51916 30.9787 4.65583 30.9778C5.09331 30.9755 5.53068 30.977 5.96815 30.9787C6.27271 30.9784 6.57728 30.9779 6.88184 30.9773C7.51975 30.9765 8.15762 30.9776 8.79553 30.98C9.61283 30.9829 10.4301 30.9812 11.2474 30.9782C11.8761 30.9763 12.5049 30.9769 13.1337 30.9782C13.435 30.9786 13.7364 30.9782 14.0377 30.977C14.459 30.9757 14.8802 30.9776 15.3015 30.9805C15.4879 30.9789 15.4879 30.9789 15.6782 30.9774C16.3973 30.9863 16.8411 31.0525 17.3967 31.5552C17.9918 32.2153 17.9774 32.809 17.9704 33.6545C17.9713 33.7874 17.9722 33.9203 17.9731 34.0572C17.9753 34.4955 17.9738 34.9337 17.9721 35.372C17.9725 35.6772 17.973 35.9823 17.9736 36.2875C17.9743 36.9266 17.9733 37.5657 17.9709 38.2048C17.968 39.0237 17.9696 39.8424 17.9727 40.6613C17.9745 41.2913 17.9739 41.9213 17.9726 42.5513C17.9723 42.8532 17.9727 43.1551 17.9739 43.457C17.9752 43.8791 17.9732 44.3011 17.9704 44.7232C17.9714 44.8477 17.9724 44.9723 17.9735 45.1006C17.9646 45.8211 17.8985 46.2657 17.3967 46.8224C16.7379 47.4186 16.1454 47.4042 15.3015 47.3972C15.1688 47.3981 15.0362 47.399 14.8995 47.3999C14.462 47.4021 14.0247 47.4006 13.5872 47.3989C13.2826 47.3993 12.9781 47.3997 12.6735 47.4004C12.0356 47.4011 11.3977 47.4 10.7598 47.3977C9.94251 47.3948 9.12529 47.3964 8.30799 47.3995C7.6792 47.4013 7.05043 47.4007 6.42165 47.3994C6.12031 47.3991 5.81897 47.3995 5.51763 47.4007C5.09632 47.402 4.67516 47.4 4.25386 47.3972C4.12956 47.3982 4.00526 47.3992 3.87719 47.4003C3.15807 47.3913 2.71424 47.3252 2.15863 46.8224C1.56358 46.1623 1.57798 45.5687 1.58496 44.7232C1.58407 44.5903 1.58318 44.4574 1.58227 44.3204C1.58004 43.8821 1.58151 43.4439 1.58323 43.0056C1.58289 42.7005 1.58239 42.3953 1.58176 42.0902C1.58101 41.4511 1.58209 40.812 1.58447 40.1728C1.58736 39.354 1.5857 38.5352 1.58265 37.7163C1.58082 37.0863 1.5814 36.4564 1.58272 35.8264C1.58306 35.5245 1.58264 35.2226 1.58146 34.9206C1.58017 34.4985 1.58214 34.0766 1.58496 33.6545C1.58394 33.5299 1.58291 33.4054 1.58185 33.2771C1.59078 32.5566 1.6568 32.1119 2.15863 31.5552C2.81745 30.9591 3.40997 30.9735 4.25386 30.9805ZM5.71418 35.1176C5.71418 37.8046 5.71418 40.4916 5.71418 43.2601C8.39609 43.2601 11.078 43.2601 13.8412 43.2601C13.8412 40.573 13.8412 37.886 13.8412 35.1176C11.1593 35.1176 8.47735 35.1176 5.71418 35.1176Z" fill="#818285"/>
<path d="M4.25386 2.48048C4.38651 2.47959 4.51916 2.4787 4.65583 2.47778C5.09331 2.47554 5.53068 2.47702 5.96815 2.47874C6.27271 2.4784 6.57728 2.4779 6.88184 2.47726C7.51975 2.47651 8.15762 2.4776 8.79553 2.47998C9.61283 2.48288 10.4301 2.48121 11.2474 2.47816C11.8761 2.47632 12.5049 2.47691 13.1337 2.47823C13.435 2.47857 13.7364 2.47815 14.0377 2.47697C14.459 2.47567 14.8802 2.47765 15.3015 2.48048C15.4879 2.47893 15.4879 2.47893 15.6782 2.47736C16.3973 2.48631 16.8411 2.55246 17.3967 3.05524C17.9918 3.71532 17.9774 4.30896 17.9704 5.15447C17.9713 5.28738 17.9722 5.42028 17.9731 5.55721C17.9753 5.99552 17.9738 6.43372 17.9721 6.87203C17.9725 7.17717 17.973 7.48232 17.9736 7.78746C17.9743 8.42659 17.9733 9.06568 17.9709 9.70481C17.968 10.5237 17.9696 11.3424 17.9727 12.1613C17.9745 12.7913 17.9739 13.4213 17.9726 14.0513C17.9723 14.3532 17.9727 14.6551 17.9739 14.957C17.9752 15.3791 17.9732 15.8011 17.9704 16.2232C17.9714 16.3477 17.9724 16.4723 17.9735 16.6006C17.9646 17.3211 17.8985 17.7657 17.3967 18.3224C16.7379 18.9186 16.1454 18.9042 15.3015 18.8972C15.1688 18.8981 15.0362 18.899 14.8995 18.8999C14.462 18.9021 14.0247 18.9006 13.5872 18.8989C13.2826 18.8993 12.9781 18.8997 12.6735 18.9004C12.0356 18.9011 11.3977 18.9 10.7598 18.8977C9.94251 18.8948 9.12529 18.8964 8.30799 18.8995C7.6792 18.9013 7.05043 18.9007 6.42165 18.8994C6.12031 18.8991 5.81897 18.8995 5.51763 18.9007C5.09632 18.902 4.67516 18.9 4.25386 18.8972C4.12956 18.8982 4.00526 18.8992 3.87719 18.9003C3.15807 18.8913 2.71424 18.8252 2.15863 18.3224C1.56358 17.6623 1.57798 17.0687 1.58496 16.2232C1.58407 16.0903 1.58318 15.9574 1.58227 15.8204C1.58004 15.3821 1.58151 14.9439 1.58323 14.5056C1.58289 14.2005 1.58239 13.8953 1.58176 13.5902C1.58101 12.9511 1.58209 12.312 1.58447 11.6728C1.58736 10.854 1.5857 10.0352 1.58265 9.21634C1.58082 8.58635 1.5814 7.95638 1.58272 7.32639C1.58306 7.02448 1.58264 6.72256 1.58146 6.42065C1.58017 5.99854 1.58214 5.57657 1.58496 5.15447C1.58394 5.02993 1.58291 4.90539 1.58185 4.77708C1.59078 4.05659 1.6568 3.61191 2.15863 3.05524C2.81745 2.45905 3.40997 2.47349 4.25386 2.48048ZM5.71418 6.61758C5.71418 9.3046 5.71418 11.9916 5.71418 14.7601C8.39609 14.7601 11.078 14.7601 13.8412 14.7601C13.8412 12.073 13.8412 9.38602 13.8412 6.61758C11.1593 6.61758 8.47735 6.61758 5.71418 6.61758Z" fill="#818285"/>
<path d="M24.1538 2.48197C24.2878 2.48078 24.2878 2.48078 24.4244 2.47956C24.7221 2.47754 25.0197 2.47914 25.3175 2.48074C25.5315 2.48005 25.7456 2.47914 25.9597 2.47804C26.54 2.47572 27.1203 2.47662 27.7007 2.47823C28.3084 2.47952 28.9161 2.47832 29.5238 2.47753C30.5443 2.4766 31.5648 2.47782 32.5853 2.48024C33.7647 2.48301 34.944 2.48212 36.1234 2.47931C37.1365 2.477 38.1496 2.47668 39.1627 2.47801C39.7675 2.4788 40.3724 2.47891 40.9772 2.47723C41.5459 2.47576 42.1145 2.47678 42.6832 2.47972C42.8918 2.48039 43.1003 2.4802 43.3088 2.47908C43.5939 2.47768 43.8787 2.47943 44.1637 2.48197C44.3231 2.48216 44.4825 2.48235 44.6467 2.48255C45.3197 2.58215 45.7074 2.89648 46.1388 3.40885C46.3911 3.90048 46.4136 4.22952 46.415 4.78101C46.4158 4.8742 46.4167 4.96739 46.4177 5.06341C46.4199 5.36956 46.4184 5.67556 46.4167 5.98171C46.417 6.19557 46.4175 6.40944 46.4182 6.6233C46.4189 7.07077 46.4178 7.51818 46.4155 7.96564C46.4126 8.53807 46.4142 9.11037 46.4173 9.6828C46.4191 10.1242 46.4185 10.5656 46.4172 11.007C46.4169 11.218 46.4173 11.429 46.4185 11.64C46.4198 11.9354 46.4178 12.2306 46.415 12.5259C46.4146 12.6937 46.4141 12.8615 46.4137 13.0343C46.318 13.7079 46.0074 14.0933 45.5238 14.5536C44.868 14.8587 44.2667 14.8562 43.5556 14.7603C42.9663 14.4862 42.5351 14.0959 42.2857 13.4881C42.2161 12.9617 42.2266 12.4408 42.2361 11.9107C42.2369 11.7592 42.2376 11.6078 42.2383 11.4518C42.2411 10.9696 42.2475 10.4875 42.254 10.0052C42.2565 9.67774 42.2589 9.35023 42.2609 9.02272C42.2665 8.22105 42.275 7.41945 42.2857 6.61784C42.1395 6.61854 42.1395 6.61854 41.9904 6.61926C39.6185 6.6305 37.2466 6.63892 34.8747 6.6442C33.7277 6.64683 32.5806 6.65041 31.4336 6.65623C30.4338 6.6613 29.434 6.66458 28.4342 6.66572C27.9049 6.66638 27.3756 6.66794 26.8462 6.67164C26.3478 6.6751 25.8494 6.67616 25.351 6.6754C25.1682 6.67554 24.9855 6.67655 24.8028 6.6785C24.5528 6.68104 24.3028 6.68012 24.0529 6.67904C23.9131 6.6795 23.7733 6.67997 23.6293 6.68046C22.9994 6.57963 22.6057 6.24553 22.1746 5.79087C21.8701 5.13374 21.8726 4.53129 21.9683 3.81886C22.412 2.86139 23.1235 2.48321 24.1538 2.48197Z" fill="#818285"/>
<path d="M32.6347 10.6203C32.7558 10.6198 32.877 10.6193 33.0018 10.6188C33.2571 10.6185 33.5124 10.6194 33.7676 10.6216C34.1573 10.6243 34.5467 10.6216 34.9363 10.6183C35.185 10.6187 35.4337 10.6193 35.6823 10.6203C35.8562 10.6188 35.8562 10.6188 36.0335 10.6172C36.7423 10.6276 37.1521 10.7231 37.7141 11.1968C38.1748 11.6827 38.2614 12.0725 38.2855 12.7235C38.2614 13.3746 38.1748 13.7643 37.7141 14.2502C37.02 14.8609 36.4043 14.8211 35.5077 14.791C35.313 14.7875 35.313 14.7875 35.1144 14.784C34.7956 14.778 34.4771 14.7697 34.1585 14.7591C34.1596 14.8945 34.1608 15.0299 34.1619 15.1694C34.1722 16.446 34.1798 17.7227 34.1848 18.9994C34.1875 19.6557 34.1911 20.312 34.1968 20.9683C34.2024 21.6019 34.2054 22.2354 34.2067 22.869C34.2076 23.1105 34.2095 23.3521 34.2122 23.5936C34.2159 23.9323 34.2164 24.2709 34.2162 24.6096C34.2189 24.7589 34.2189 24.7589 34.2217 24.9113C34.2168 25.5717 34.0794 25.9365 33.6506 26.464C33.1656 26.9256 32.7766 27.0123 32.1268 27.0365C31.477 27.0123 31.088 26.9256 30.603 26.464C30.0221 25.7811 30.0222 25.2208 30.0293 24.3647C30.0284 24.2318 30.0275 24.0989 30.0266 23.962C30.0244 23.5237 30.0258 23.0855 30.0276 22.6472C30.0272 22.342 30.0267 22.0369 30.0261 21.7318C30.0253 21.0926 30.0264 20.4535 30.0288 19.8144C30.0317 18.9955 30.03 18.1768 30.027 17.3579C30.0252 16.7279 30.0257 16.098 30.0271 15.468C30.0274 15.166 30.027 14.8641 30.0258 14.5622C30.0245 14.1401 30.0265 13.7181 30.0293 13.296C30.0283 13.1715 30.0272 13.047 30.0262 12.9186C30.0352 12.1948 30.1149 11.768 30.603 11.1968C31.2496 10.6188 31.8093 10.613 32.6347 10.6203Z" fill="#818285"/>
<path d="M24.7617 31.047C25.3922 31.3403 25.7062 31.7098 26.0316 32.3192C26.1047 32.7649 26.101 33.2043 26.0973 33.6551C26.0982 33.788 26.0991 33.9209 26.1 34.0579C26.1022 34.4962 26.1007 34.9344 26.099 35.3727C26.0994 35.6778 26.0999 35.983 26.1005 36.2881C26.1012 36.9272 26.1002 37.5663 26.0978 38.2055C26.0949 39.0243 26.0966 39.8431 26.0996 40.662C26.1014 41.292 26.1008 41.9219 26.0995 42.5519C26.0992 42.8538 26.0996 43.1557 26.1008 43.4577C26.1021 43.8798 26.1001 44.3017 26.0973 44.7238C26.0983 44.8484 26.0993 44.9729 26.1004 45.1012C26.0914 45.8257 26.0106 46.2505 25.5236 46.8231C25.0386 47.2847 24.6496 47.3714 23.9998 47.3956C23.35 47.3714 22.961 47.2847 22.476 46.8231C21.8952 46.1402 21.8953 45.5799 21.9023 44.7238C21.9015 44.5909 21.9006 44.458 21.8997 44.3211C21.8974 43.8828 21.8989 43.4446 21.9006 43.0063C21.9003 42.7011 21.8998 42.396 21.8991 42.0908C21.8984 41.4517 21.8995 40.8126 21.9019 40.1735C21.9047 39.3546 21.9031 38.5359 21.9 37.717C21.8982 37.087 21.8988 36.457 21.9001 35.827C21.9004 35.5251 21.9 35.2232 21.8988 34.9213C21.8976 34.4992 21.8995 34.0772 21.9023 33.6551C21.9013 33.5306 21.9003 33.406 21.8992 33.2777C21.9082 32.5533 21.989 32.1284 22.476 31.5559C23.1454 30.9188 23.8866 30.9289 24.7617 31.047Z" fill="#818285"/>
<path d="M4.06756 22.832C4.23681 22.8307 4.23681 22.8307 4.40948 22.8293C4.781 22.8271 5.15239 22.8286 5.52391 22.8303C5.78292 22.83 6.04193 22.8295 6.30094 22.8288C6.8432 22.8281 7.38542 22.8292 7.92768 22.8315C8.622 22.8344 9.31622 22.8328 10.0105 22.8297C10.5452 22.8279 11.0799 22.8285 11.6145 22.8298C11.8705 22.8301 12.1265 22.8297 12.3824 22.8285C12.7405 22.8272 13.0984 22.8292 13.4564 22.832C13.5618 22.831 13.6671 22.83 13.7756 22.8289C14.4497 22.8388 14.8276 22.9641 15.3652 23.4068C15.8259 23.8927 15.9125 24.2825 15.9366 24.9335C15.9125 25.5846 15.8259 25.9743 15.3652 26.4602C14.7208 26.9909 14.2551 27.0428 13.4564 27.035C13.3436 27.0359 13.2308 27.0368 13.1145 27.0377C12.743 27.0399 12.3716 27.0385 12.0001 27.0367C11.7411 27.0371 11.4821 27.0376 11.2231 27.0382C10.6808 27.039 10.1386 27.0379 9.59633 27.0355C8.90201 27.0326 8.20779 27.0343 7.51348 27.0373C6.9788 27.0391 6.44416 27.0386 5.90948 27.0372C5.65351 27.0369 5.39753 27.0373 5.14156 27.0385C4.7835 27.0398 4.42561 27.0378 4.06756 27.035C3.96226 27.036 3.85695 27.037 3.74846 27.0381C3.07431 27.0283 2.69638 26.9029 2.15883 26.4602C1.69809 25.9743 1.61153 25.5846 1.5874 24.9335C1.61153 24.2825 1.69809 23.8927 2.15883 23.4068C2.80317 22.8762 3.2689 22.8242 4.06756 22.832Z" fill="#818285"/>
<path d="M40.7619 18.7609C40.883 18.7604 41.0041 18.76 41.1289 18.7595C41.3842 18.7591 41.6395 18.76 41.8948 18.7622C42.2845 18.7649 42.6738 18.7622 43.0635 18.7589C43.3121 18.7593 43.5608 18.7599 43.8095 18.7609C43.9833 18.7594 43.9833 18.7594 44.1607 18.7578C44.8661 18.7682 45.2944 18.8486 45.8412 19.3374C46.4181 19.9853 46.424 20.546 46.4166 21.3731C46.4174 21.5551 46.4174 21.5551 46.4181 21.7408C46.4184 21.9966 46.4175 22.2524 46.4154 22.5082C46.4127 22.8985 46.4154 23.2886 46.4186 23.679C46.4183 23.9282 46.4176 24.1773 46.4166 24.4265C46.4177 24.5426 46.4187 24.6587 46.4197 24.7783C46.4094 25.4885 46.314 25.8991 45.8412 26.4621C45.3562 26.9237 44.9672 27.0105 44.3174 27.0346C43.6676 27.0105 43.2786 26.9237 42.7936 26.4621C42.1841 25.7667 42.2239 25.1498 42.2539 24.2516C42.2562 24.1215 42.2585 23.9914 42.2609 23.8574C42.2668 23.5381 42.2752 23.219 42.2857 22.8998C42.205 22.9024 42.1244 22.9051 42.0413 22.9078C41.6731 22.9185 41.3048 22.9251 40.9365 22.9316C40.8096 22.9358 40.6827 22.9401 40.552 22.9445C39.7698 22.9549 39.3249 22.9142 38.7301 22.3909C38.2694 21.9049 38.1828 21.5152 38.1587 20.8641C38.1828 20.2131 38.2694 19.8233 38.7301 19.3374C39.3986 18.7739 39.9267 18.7535 40.7619 18.7609Z" fill="#818285"/>
<path d="M24.7617 10.6876C25.3923 10.9809 25.7039 11.3518 26.0315 11.9599C26.104 12.3846 26.1028 12.802 26.099 13.2321C26.0995 13.3535 26.1 13.4749 26.1005 13.5999C26.1008 13.8557 26.0999 14.1115 26.0977 14.3672C26.095 14.7576 26.0977 15.1477 26.101 15.5381C26.1006 15.7873 26.1 16.0364 26.099 16.2856C26.1 16.4017 26.101 16.5178 26.1021 16.6374C26.0917 17.3476 25.9964 17.7582 25.5236 18.3212C25.0386 18.7828 24.6496 18.8695 23.9998 18.8937C23.35 18.8695 22.961 18.7828 22.476 18.3212C21.9136 17.6514 21.8932 17.1224 21.9006 16.2856C21.9001 16.1642 21.8996 16.0428 21.8991 15.9178C21.8988 15.662 21.8997 15.4062 21.9018 15.1505C21.9045 14.7601 21.9018 14.37 21.8986 13.9796C21.8989 13.7304 21.8996 13.4813 21.9006 13.2321C21.8995 13.116 21.8985 12.9999 21.8975 12.8803C21.9078 12.1701 22.0032 11.7595 22.476 11.1965C23.1453 10.5594 23.8865 10.5696 24.7617 10.6876Z" fill="#818285"/>
<path d="M22.9842 22.8337C23.1439 22.8317 23.3037 22.8297 23.4683 22.8277C24.9127 22.8338 24.9127 22.8338 25.5238 23.4062C25.9846 23.8921 26.0711 24.2819 26.0953 24.9329C26.0645 25.7627 25.8382 26.1652 25.2352 26.73C24.5775 27.1573 23.7362 27.0414 22.9842 27.0321C22.8244 27.0341 22.6646 27.0361 22.5 27.0381C21.0556 27.032 21.0556 27.032 20.4445 26.4596C19.9837 25.9737 19.8972 25.584 19.873 24.9329C19.9038 24.1032 20.1301 23.7006 20.7332 23.1358C21.3908 22.7085 22.2321 22.8244 22.9842 22.8337Z" fill="#818285"/>
</svg>
