<svg width="50" height="50" viewBox="0 0 50 50" fill="none" xmlns="http://www.w3.org/2000/svg">
<path d="M19.1407 2.05303C19.2158 2.07139 19.291 2.08976 19.3684 2.10868C21.1389 2.55237 22.853 3.29641 24.3164 4.39678C24.3976 4.45758 24.4788 4.51839 24.5625 4.58103C27.7955 7.09106 29.7118 10.4945 30.3295 14.5286C30.389 15.0243 30.3817 15.5193 30.3772 16.0179C30.3768 16.1122 30.3763 16.2065 30.3759 16.3036C30.3748 16.5339 30.3732 16.7642 30.3711 16.9944C30.5012 16.9733 30.5012 16.9733 30.634 16.9517C34.8155 16.3441 39.0809 17.3437 42.4942 19.857C42.7575 20.0676 43.0106 20.2852 43.2617 20.5101C43.3093 20.5518 43.3568 20.5936 43.4058 20.6367C46.6034 23.4503 48.5047 27.3207 48.8037 31.5723C49.0286 35.7684 47.6759 39.8152 44.8914 42.971C44.7398 43.1347 44.5871 43.2974 44.4336 43.4593C44.3028 43.5996 44.3028 43.5996 44.1693 43.7427C42.1222 45.8943 39.3959 47.2811 36.5235 47.9515C36.4282 47.9755 36.4282 47.9755 36.3309 47.9999C34.2617 48.5075 31.6511 48.4782 29.5899 47.9515C29.472 47.9231 29.472 47.9231 29.3518 47.8942C27.4238 47.4239 25.6519 46.6463 24.0235 45.5101C23.9669 45.4706 23.9104 45.4312 23.8522 45.3906C20.5452 43.0346 18.281 39.4813 17.5312 35.4908C17.2946 33.9408 17.1866 32.4244 17.3828 30.8616C17.2974 30.8632 17.2119 30.8647 17.1239 30.8663C13.8771 30.9168 13.8771 30.9168 12.5 30.5687C12.3886 30.5419 12.3886 30.5419 12.275 30.5146C9.65363 29.8679 7.39121 28.5379 5.46878 26.6624C5.36776 26.5704 5.36776 26.5704 5.26469 26.4766C2.62822 24.0127 1.35871 20.326 1.1719 16.7991C1.06438 12.9254 2.43172 9.20156 5.07765 6.37117C5.20778 6.23364 5.33827 6.09645 5.46878 5.95928C5.56131 5.85731 5.56131 5.85731 5.6557 5.75329C7.46199 3.82763 9.97522 2.66799 12.5 2.05303C12.6214 2.02156 12.7427 1.99009 12.8678 1.95766C14.8238 1.52701 17.2018 1.55699 19.1407 2.05303ZM6.15237 7.61944C3.93912 10.1796 2.60258 13.5757 2.84536 16.986C3.12933 20.4684 4.58512 23.6331 7.18234 26.0112C9.61979 28.0701 12.5307 29.2467 15.741 29.232C15.8656 29.2315 15.9902 29.231 16.1185 29.2305C17.0603 29.2189 17.9362 29.1423 18.8477 28.9085C18.9714 28.8775 19.0952 28.8466 19.2227 28.8147C21.476 28.2026 23.337 26.9935 25 25.3929C25.0617 25.3374 25.1234 25.2818 25.1869 25.2246C27.1057 23.4469 28.1725 20.7915 28.6133 18.264C28.6403 18.1129 28.6403 18.1129 28.6679 17.9588C29.0514 14.592 28.2157 11.1382 26.0952 8.46249C25.7405 8.04077 25.3783 7.62961 25 7.22881C24.9332 7.15567 24.8663 7.08253 24.7975 7.00718C22.8349 4.93578 19.8087 3.55464 16.9607 3.40293C12.763 3.32813 9.07835 4.48073 6.15237 7.61944ZM30.1758 18.7522C30.0898 18.9415 30.0898 18.9415 30.0396 19.1768C30.0172 19.2654 29.9947 19.354 29.9716 19.4453C29.9484 19.5409 29.9251 19.6364 29.9012 19.7349C28.8962 23.6016 26.6313 26.7982 23.1767 28.8594C21.9854 29.5467 20.6671 30.1264 19.3165 30.4058C19.2585 30.4273 19.2004 30.4488 19.1407 30.471C18.2661 33.0948 19.3202 36.5776 20.4712 38.961C22.1351 42.2651 25.1358 44.7645 28.6194 45.9434C32.1875 47.0859 36.0448 46.8219 39.4173 45.166C42.6797 43.4749 45.3381 40.504 46.4604 36.9835C47.5713 33.3103 47.3591 29.3875 45.5466 25.9662C44.892 24.778 44.0971 23.7416 43.1641 22.7562C43.0423 22.6249 43.0423 22.6249 42.918 22.491C40.544 20.0128 37.0077 18.5226 33.593 18.4429C33.4264 18.4414 33.2599 18.4408 33.0933 18.441C32.9611 18.441 32.9611 18.441 32.8263 18.441C31.9509 18.4483 31.0115 18.4737 30.1758 18.7522Z" fill="#818285"/>
<path d="M36.2304 24.1189C36.2969 24.1762 36.3634 24.2335 36.4318 24.2925C36.9983 24.8171 37.5024 25.4511 37.6438 26.228C37.6639 26.7666 37.6639 26.7666 37.4713 27.0185C37.1885 27.2353 36.8689 27.2642 36.5234 27.2439C36.087 27.0158 35.9496 26.7001 35.7486 26.2754C35.3424 25.4822 34.6981 25.1279 33.8867 24.8025C32.9732 24.5808 32.1307 24.7497 31.3232 25.2175C30.6182 25.6965 30.1853 26.3186 29.9804 27.1462C29.948 27.4503 29.9339 27.7544 29.9213 28.0599C29.9174 28.1412 29.9135 28.2225 29.9094 28.3063C29.8999 28.5055 29.8913 28.7048 29.8828 28.9041C29.9809 28.9032 30.0791 28.9023 30.1802 28.9014C31.1083 28.8935 32.0363 28.8876 32.9644 28.8838C33.4415 28.8818 33.9185 28.879 34.3956 28.8746C34.8566 28.8703 35.3175 28.868 35.7785 28.867C35.9538 28.8663 36.129 28.8649 36.3043 28.8628C37.5415 28.8484 38.5311 28.8993 39.4767 29.7895C40.073 30.4453 40.2483 31.0053 40.2516 31.8798C40.2523 31.9527 40.2529 32.0257 40.2536 32.1008C40.2555 32.3418 40.2566 32.5827 40.2576 32.8237C40.258 32.9062 40.2584 32.9888 40.2588 33.0739C40.2608 33.5112 40.2622 33.9485 40.2632 34.3858C40.2642 34.8358 40.2676 35.2859 40.2715 35.7359C40.274 36.0834 40.2748 36.4308 40.2752 36.7782C40.2757 36.9441 40.2768 37.1099 40.2786 37.2757C40.2957 38.9404 40.2957 38.9404 39.8437 39.6462C39.7931 39.7253 39.7425 39.8044 39.6903 39.8858C39.1537 40.5061 38.5105 40.8869 37.6953 41.0134C37.3981 41.0283 37.1012 41.0288 36.8037 41.0292C36.6702 41.0299 36.6702 41.0299 36.534 41.0306C36.2402 41.0321 35.9463 41.0327 35.6525 41.0333C35.4475 41.0338 35.2426 41.0344 35.0376 41.035C34.6079 41.036 34.1781 41.0366 33.7484 41.0369C33.1995 41.0374 32.6506 41.0398 32.1017 41.0426C31.6782 41.0444 31.2547 41.0449 30.8311 41.045C30.6289 41.0453 30.4266 41.0461 30.2244 41.0474C29.9405 41.0491 29.6566 41.0489 29.3727 41.0482C29.2902 41.0491 29.2077 41.05 29.1228 41.051C28.2008 41.0446 27.3476 40.8157 26.6784 40.1551C25.9943 39.4169 25.7712 38.7127 25.7655 37.7093C25.765 37.6441 25.7645 37.5789 25.764 37.5118C25.7626 37.2972 25.7619 37.0826 25.7614 36.868C25.7611 36.7943 25.7608 36.7205 25.7605 36.6445C25.7591 36.254 25.7582 35.8634 25.7577 35.4729C25.7572 35.0718 25.7549 34.6707 25.7521 34.2696C25.7502 33.9592 25.7498 33.6487 25.7496 33.3383C25.7493 33.1906 25.7485 33.0428 25.7472 32.8951C25.7371 31.651 25.8341 30.6754 26.6967 29.7219C27.1988 29.2676 27.5495 29.0813 28.2226 29.0017C28.2206 28.9462 28.2185 28.8908 28.2164 28.8336C28.1673 27.2947 28.2193 26.0652 29.1992 24.8025C29.2717 24.7018 29.3442 24.6011 29.4189 24.4973C31.2251 22.609 34.249 22.3971 36.2304 24.1189ZM27.655 31.1502C27.4242 31.5388 27.4279 31.9143 27.4241 32.3597C27.4228 32.4862 27.4216 32.6127 27.4203 32.743C27.4195 32.8809 27.4187 33.0188 27.4181 33.1567C27.4177 33.2265 27.4173 33.2962 27.4169 33.3681C27.4148 33.7375 27.4134 34.107 27.4125 34.4764C27.4115 34.8564 27.4081 35.2364 27.4042 35.6164C27.4017 35.91 27.4008 36.2035 27.4005 36.4971C27.4 36.6371 27.3989 36.7771 27.3971 36.9171C27.3508 38.018 27.3508 38.018 27.832 38.9627C28.3671 39.3403 28.7597 39.4102 29.4055 39.4038C29.492 39.4045 29.5785 39.4052 29.6676 39.4059C29.9518 39.4076 30.236 39.4065 30.5202 39.4052C30.7188 39.4054 30.9174 39.4058 31.1159 39.4063C31.5316 39.4069 31.9472 39.406 32.3628 39.4042C32.8942 39.402 33.4255 39.4033 33.957 39.4056C34.3669 39.407 34.7768 39.4066 35.1867 39.4056C35.3826 39.4053 35.5785 39.4056 35.7744 39.4065C36.0487 39.4075 36.323 39.406 36.5974 39.4038C36.6775 39.4046 36.7576 39.4054 36.8402 39.4062C37.3922 39.3982 37.8208 39.2749 38.2812 38.9627C38.6598 38.4864 38.6838 37.9801 38.6876 37.3888C38.6885 37.2705 38.6894 37.1521 38.6904 37.0302C38.6908 36.903 38.6912 36.7759 38.6917 36.6448C38.6919 36.5796 38.6922 36.5143 38.6925 36.4471C38.694 36.1016 38.6949 35.7562 38.6953 35.4107C38.6958 35.056 38.6982 34.7013 38.7009 34.3466C38.7028 34.0719 38.7033 33.7973 38.7034 33.5227C38.7039 33.329 38.7057 33.1353 38.7075 32.9416C38.7095 31.7749 38.7095 31.7749 38.1347 30.8084C37.6745 30.5322 37.2518 30.5486 36.731 30.5469C36.6423 30.5463 36.5537 30.5456 36.4624 30.545C36.1688 30.5431 35.8752 30.5419 35.5815 30.5409C35.4813 30.5405 35.381 30.5402 35.2777 30.5397C34.747 30.5377 34.2164 30.5363 33.6857 30.5354C33.1376 30.5343 32.5896 30.5309 32.0415 30.5271C31.62 30.5245 31.1985 30.5237 30.7771 30.5234C30.575 30.5229 30.373 30.5217 30.171 30.5199C29.8881 30.5176 29.6053 30.5176 29.3225 30.5183C29.2392 30.5171 29.1559 30.5158 29.0701 30.5145C28.4545 30.5199 28.0793 30.682 27.655 31.1502Z" fill="#818285"/>
<path d="M10.1564 9.67015C10.3891 9.84646 10.5817 10.0539 10.779 10.2683C11.1106 10.6194 11.4418 10.9594 11.8082 11.2746C12.2931 11.6919 12.7361 12.1472 13.1838 12.6037C13.5641 12.9884 13.9545 13.352 14.3644 13.705C14.6506 13.9572 14.9184 14.2262 15.1857 14.498C15.2381 14.5508 15.2905 14.6037 15.3444 14.6581C15.4708 14.7856 15.5969 14.9134 15.7229 15.0412C16.6754 14.2403 17.5801 13.3949 18.4502 12.5056C18.7332 12.2183 19.0214 11.9446 19.3274 11.6816C19.8243 11.2527 20.2751 10.7806 20.7291 10.307C20.7945 10.2402 20.8599 10.1735 20.9272 10.1046C20.9852 10.0446 21.0431 9.98447 21.1028 9.92257C21.4115 9.66635 21.6769 9.57044 22.0766 9.5786C22.4527 9.69862 22.5688 9.81004 22.7541 10.1584C22.747 10.6518 22.7231 10.8534 22.418 11.2483C22.3181 11.3446 22.2165 11.4391 22.1132 11.5317C22.0399 11.6017 22.0399 11.6017 21.965 11.6731C21.6851 11.9375 21.3949 12.1892 21.1035 12.4408C20.6902 12.8007 20.3057 13.1853 19.9221 13.5764C19.4778 14.0293 19.0268 14.4628 18.5461 14.8769C18.2599 15.1291 17.9922 15.3981 17.7248 15.6699C17.6724 15.7227 17.6201 15.7755 17.5661 15.8299C17.4397 15.9574 17.3137 16.0852 17.1877 16.2131C17.3456 16.6118 17.6314 16.8776 17.9323 17.1714C17.9808 17.2198 18.0293 17.2682 18.0792 17.318C18.356 17.5917 18.6407 17.8522 18.9356 18.1064C19.4199 18.5261 19.8642 18.9823 20.3127 19.4396C20.6952 19.8266 21.0877 20.1928 21.4999 20.5479C21.7472 20.7642 21.9789 20.9914 22.2109 21.2241C22.2933 21.3063 22.3758 21.3885 22.4608 21.4732C22.6924 21.7202 22.7473 21.8155 22.7846 22.1518C22.7453 22.5524 22.6741 22.6939 22.3635 22.9514C22.0398 23.0819 21.8133 23.064 21.4846 22.9514C21.0151 22.6069 20.6201 22.1961 20.215 21.7795C20.0244 21.5881 19.8332 21.3973 19.6419 21.2066C19.5192 21.0837 19.3969 20.9603 19.2752 20.8363C18.9813 20.5378 18.6826 20.252 18.3649 19.9786C17.8768 19.5575 17.4322 19.0962 16.9838 18.6335C16.5881 18.2313 16.1922 17.894 15.7229 17.5803C15.6332 17.6711 15.5436 17.7618 15.4512 17.8553C15.3302 17.9773 15.2092 18.0992 15.0881 18.2212C15.0294 18.2807 14.9708 18.3401 14.9103 18.4014C14.6063 18.7071 14.298 19.0016 13.9711 19.2828C13.5404 19.6546 13.1429 20.0554 12.7443 20.4612C12.28 20.934 11.8103 21.3895 11.3078 21.8218C11.08 22.0213 10.868 22.2339 10.6569 22.4509C10.1795 22.9417 10.1795 22.9417 9.68037 22.9819C9.39183 22.9762 9.28823 22.9578 9.0334 22.8049C8.82806 22.4627 8.80298 22.1621 8.88692 21.7795C9.12555 21.4141 9.40252 21.1674 9.73225 20.8857C10.1711 20.5035 10.5789 20.0949 10.9865 19.6799C11.4442 19.2139 11.907 18.7662 12.4021 18.3402C12.7537 18.0277 13.0802 17.6901 13.4096 17.3545C13.5453 17.2163 13.6812 17.0783 13.8174 16.9406C13.8764 16.8805 13.9353 16.8204 13.9961 16.7585C14.1604 16.6037 14.1604 16.6037 14.4533 16.4084C14.2993 16.0083 14.0099 15.7695 13.6965 15.4929C13.1501 15.0007 12.6259 14.4913 12.1118 13.9656C11.8347 13.6843 11.5527 13.4151 11.2539 13.1568C10.759 12.7283 10.2848 12.2802 9.81465 11.8247C9.72502 11.7412 9.63539 11.6576 9.54305 11.5716C8.82957 10.8756 8.82957 10.8756 8.81787 10.4049C8.89441 10.0235 8.96405 9.89408 9.27754 9.67015C9.63689 9.55037 9.79296 9.56314 10.1564 9.67015Z" fill="#818285"/>
<path d="M4.49199 32.031C4.81056 32.2571 4.91034 32.461 4.98561 32.832C5.01331 32.9962 5.03996 33.1605 5.06572 33.3249C5.42264 35.3031 6.25296 37.0825 7.61699 38.5739C7.69214 38.657 7.7673 38.7401 7.84473 38.8257C9.49056 40.5593 11.627 41.4042 13.867 42.0895C13.772 41.8045 13.6542 41.5845 13.5034 41.3255C13.4509 41.233 13.3983 41.1405 13.3442 41.0453C13.2336 40.8516 13.122 40.6586 13.0093 40.4662C12.6905 39.9003 12.5155 39.5185 12.5975 38.8669C12.6951 38.6289 12.6951 38.6289 12.8904 38.4763C13.1564 38.3882 13.3934 38.3378 13.6717 38.3786C14.0754 38.6533 14.2772 38.9267 14.5006 39.3575C14.5452 39.4422 14.5452 39.4422 14.5908 39.5287C14.6862 39.7104 14.7801 39.8929 14.8741 40.0754C15.0037 40.3238 15.1341 40.5719 15.2643 40.82C15.2958 40.8803 15.3273 40.9405 15.3597 41.0026C15.6468 41.5504 15.9553 42.0827 16.2771 42.6106C16.4236 42.9062 16.4906 43.1266 16.5037 43.4567C16.1384 44.265 15.2567 44.798 14.5664 45.3176C14.2723 45.5391 13.9853 45.7655 13.7045 46.0038C13.645 46.0534 13.5854 46.1029 13.5241 46.154C13.4099 46.2494 13.2969 46.3462 13.1854 46.4447C12.8863 46.6916 12.661 46.808 12.2786 46.8167C11.9139 46.777 11.9139 46.777 11.6758 46.6184C11.4869 46.3312 11.4326 46.1446 11.4256 45.8005C11.6541 45.2682 12.1145 44.9564 12.5547 44.6042C12.631 44.542 12.7072 44.4798 12.7857 44.4158C13.3459 43.9614 13.3459 43.9614 13.574 43.8474C13.4557 43.8153 13.3374 43.7832 13.2154 43.7501C9.6131 42.741 6.5589 40.8032 4.67376 37.5002C3.84419 35.9882 3.0055 34.0731 3.32012 32.3239C3.62744 31.8909 4.00947 31.9029 4.49199 32.031Z" fill="#818285"/>
<path d="M37.1094 1.75636C37.4022 1.99917 37.4809 2.15656 37.5611 2.5254C37.3944 3.35916 36.4732 3.8802 35.835 4.3679C35.6349 4.5187 35.6349 4.5187 35.4493 4.68605C35.5699 4.71928 35.6905 4.75251 35.8147 4.78675C39.4192 5.80698 42.5011 7.80571 44.36 11.1253C45.1355 12.5714 45.9158 14.4412 45.7032 16.1118C45.5628 16.3743 45.5628 16.3743 45.3126 16.5025C45.0069 16.5597 44.7344 16.5877 44.4337 16.5025C44.0398 16.1352 43.9682 15.7587 43.9027 15.2451C43.6137 13.3858 42.8595 11.6618 41.6016 10.2525C41.5358 10.1728 41.47 10.0931 41.4021 10.011C39.7317 8.04238 37.358 7.11258 34.961 6.3462C34.9984 6.41515 35.0359 6.48411 35.0744 6.55515C35.2442 6.86795 35.4139 7.18081 35.5836 7.49366C35.6425 7.60218 35.7014 7.71069 35.7621 7.82249C35.8187 7.92697 35.8754 8.03146 35.9338 8.13911C35.9859 8.23525 36.0381 8.3314 36.0918 8.43046C36.1376 8.51609 36.1834 8.60172 36.2305 8.68995C36.2693 8.75859 36.308 8.82723 36.3479 8.89795C36.4779 9.20246 36.4024 9.45031 36.3282 9.76417C36.1586 10.0469 36.0302 10.0584 35.7056 10.1426C35.2965 10.1567 35.1851 10.104 34.8633 9.86183C34.6874 9.60236 34.6874 9.60236 34.5261 9.29C34.4966 9.2339 34.4672 9.17781 34.4368 9.12001C34.3417 8.93861 34.2485 8.75635 34.1553 8.57398C34.0581 8.38674 33.9605 8.1997 33.8628 8.01269C33.7983 7.88928 33.734 7.76579 33.6699 7.64222C33.4903 7.29753 33.3046 6.9581 33.1074 6.62315C33.0661 6.55293 33.0248 6.48271 32.9822 6.41036C32.9085 6.28685 32.8338 6.16396 32.7577 6.04191C32.5201 5.64033 32.448 5.34394 32.5196 4.88136C32.8492 4.38031 33.2914 4.05523 33.7708 3.70338C34.223 3.36785 34.6685 3.03107 35.0934 2.6612C35.1614 2.60268 35.2295 2.54415 35.2996 2.48384C35.4286 2.37206 35.5561 2.25863 35.6819 2.14333C36.1297 1.75909 36.5198 1.63348 37.1094 1.75636Z" fill="#818285"/>
<path d="M34.3624 31.8932C34.8515 32.219 35.0711 32.6552 35.2539 33.2036C35.3316 33.7865 35.2737 34.3572 34.9609 34.8638C34.7216 35.1212 34.4707 35.3496 34.1797 35.5473C34.1152 35.5473 34.0508 35.5473 33.9844 35.5473C33.9895 35.708 33.9895 35.708 33.9947 35.872C33.9974 36.014 34.0001 36.156 34.0027 36.2981C34.0051 36.3685 34.0076 36.4389 34.0101 36.5115C34.0163 36.9596 33.9714 37.2436 33.6914 37.5981C33.3858 37.7509 33.0458 37.7639 32.7149 37.6958C32.4959 37.5497 32.4959 37.5497 32.3242 37.3052C32.3006 37.0244 32.2937 36.767 32.2998 36.4873C32.3043 35.9216 32.3043 35.9216 32.0614 35.4333C31.8564 35.295 31.8564 35.295 31.6418 35.1785C31.2905 34.965 31.1586 34.666 31.0547 34.2778C30.9617 33.5587 30.9953 32.9142 31.4453 32.3247C32.2948 31.4229 33.2774 31.287 34.3624 31.8932ZM32.7149 33.3989C32.6742 33.6431 32.6742 33.6431 32.7149 33.8872C32.8935 34.1058 32.8935 34.1058 33.1543 34.113C33.2349 34.103 33.3154 34.0929 33.3984 34.0825C33.6196 33.8197 33.6196 33.8197 33.5693 33.5881C33.5034 33.3799 33.5034 33.3799 33.3008 33.2036C32.9898 33.1765 32.9898 33.1765 32.7149 33.3989Z" fill="#818285"/>
</svg>
