<svg width="50" height="50" viewBox="0 0 50 50" fill="none" xmlns="http://www.w3.org/2000/svg">
<path d="M13.9181 6.23368C14.0401 6.23324 14.0401 6.23324 14.1645 6.2328C14.4356 6.23195 14.7067 6.2318 14.9779 6.23166C15.1728 6.2312 15.3678 6.23071 15.5627 6.23019C16.0916 6.22891 16.6205 6.22828 17.1494 6.22784C17.4803 6.22756 17.8112 6.22715 18.1422 6.22672C19.179 6.22538 20.2159 6.22444 21.2527 6.22406C22.4468 6.22363 23.641 6.22191 24.8351 6.21908C25.7599 6.21697 26.6846 6.21599 27.6094 6.21586C28.1608 6.21575 28.7123 6.21518 29.2638 6.21343C29.7832 6.21181 30.3026 6.21162 30.822 6.21247C31.0116 6.21254 31.2013 6.21213 31.3909 6.21115C33.6098 6.20046 35.5793 6.58182 37.2629 8.14025C38.8838 9.85188 39.1885 11.8909 39.1915 14.1546C39.1924 14.3173 39.1934 14.4799 39.1944 14.6426C39.1969 15.0804 39.1982 15.5181 39.1991 15.9559C39.1997 16.2299 39.2005 16.5039 39.2013 16.7778C39.204 17.6365 39.2059 18.4951 39.2067 19.3537C39.2075 20.3425 39.211 21.3313 39.2166 22.3201C39.2208 23.0867 39.2228 23.8533 39.2231 24.6199C39.2233 25.0769 39.2244 25.5339 39.2279 25.9909C39.2311 26.4201 39.2316 26.8492 39.2298 27.2784C39.2297 27.4356 39.2305 27.5928 39.2325 27.75C39.2479 29.0845 39.2479 29.0844 38.8749 29.5335C38.388 29.9366 38.0198 29.9338 37.4022 29.8802C36.9826 29.7106 36.8203 29.4987 36.6209 29.099C36.5839 28.7995 36.5839 28.7995 36.5833 28.4582C36.5828 28.3952 36.5823 28.3321 36.5818 28.2672C36.5804 28.0566 36.5811 27.8461 36.5818 27.6355C36.5812 27.4842 36.5806 27.3329 36.5797 27.1816C36.5783 26.8559 36.5777 26.5301 36.5778 26.2044C36.578 25.6878 36.5761 25.1713 36.5739 24.6547C36.5699 23.6496 36.5681 22.6444 36.5665 21.6393C36.5643 20.3642 36.561 19.089 36.556 17.8139C36.5541 17.3021 36.5531 16.7902 36.553 16.2784C36.5527 15.9574 36.5516 15.6363 36.5504 15.3153C36.55 15.1683 36.5499 15.0213 36.5502 14.8743C36.5515 14.1024 36.5224 13.3434 36.4343 12.5765C36.4225 12.4738 36.4225 12.4738 36.4106 12.3691C36.2797 11.3295 35.8542 10.4768 35.0554 9.78705C34.0044 9.02741 32.7895 8.86883 31.5282 8.8704C31.4156 8.86996 31.4156 8.86996 31.3008 8.86952C31.0522 8.86868 30.8035 8.86852 30.5548 8.86838C30.3753 8.86792 30.1959 8.86743 30.0165 8.86691C29.5308 8.86563 29.0451 8.865 28.5594 8.86456C28.2552 8.86427 27.9511 8.86387 27.647 8.86344C26.6934 8.8621 25.7398 8.86116 24.7862 8.86078C23.6892 8.86034 22.5922 8.85863 21.4952 8.8558C20.6447 8.85368 19.7943 8.8527 18.9438 8.85257C18.4371 8.85247 17.9303 8.85191 17.4235 8.85015C16.9462 8.84853 16.4689 8.84834 15.9915 8.84919C15.8175 8.84926 15.6436 8.84885 15.4696 8.84787C14.0641 8.84047 12.5391 8.85626 11.328 9.66536C11.2488 9.74542 11.2488 9.74542 11.1681 9.8271C11.035 9.95833 11.035 9.95833 10.8397 9.95833C10.8134 10.0138 10.7871 10.0694 10.76 10.1266C10.64 10.3573 10.5011 10.5656 10.3575 10.7823C9.59802 12.0759 9.72356 13.5464 9.72755 14.996C9.72716 15.2385 9.72663 15.481 9.726 15.7235C9.7248 16.3113 9.72497 16.8991 9.72583 17.4869C9.72649 17.9651 9.72658 18.4432 9.72626 18.9214C9.72621 18.9897 9.72617 19.058 9.72612 19.1283C9.72603 19.2671 9.72593 19.4059 9.72584 19.5447C9.725 20.8433 9.72596 22.1418 9.72754 23.4404C9.72884 24.5523 9.72862 25.6641 9.72727 26.776C9.7257 28.0702 9.72508 29.3644 9.72598 30.6586C9.72607 30.7969 9.72617 30.9352 9.72626 31.0734C9.7263 31.1414 9.72635 31.2094 9.72639 31.2795C9.72665 31.7565 9.72622 32.2336 9.72553 32.7106C9.72462 33.3538 9.72528 33.9969 9.72697 34.6401C9.72735 34.8755 9.72724 35.1108 9.7266 35.3462C9.69531 37.4918 9.69531 37.4918 10.5074 39.4387C10.6444 39.6458 10.6444 39.6458 10.7355 39.856C10.8679 40.0853 10.9902 40.1285 11.2303 40.2318C11.3468 40.3104 11.4627 40.3897 11.5782 40.4698C12.5729 41.0978 13.7822 41.1251 14.9236 41.1245C15.078 41.125 15.078 41.125 15.2357 41.1256C15.4581 41.1263 15.6806 41.1268 15.903 41.1271C16.2552 41.1278 16.6074 41.1294 16.9596 41.1312C17.9605 41.1363 18.9615 41.141 19.9624 41.1425C20.5756 41.1435 21.1888 41.1463 21.802 41.1504C22.0354 41.1516 22.2688 41.1521 22.5022 41.1519C22.8282 41.1517 23.1542 41.1539 23.4803 41.1566C23.5765 41.1559 23.6727 41.1553 23.7718 41.1546C24.3424 41.1624 24.66 41.2244 25.0975 41.599C25.4098 41.9633 25.436 42.2928 25.4183 42.7563C25.3662 43.1486 25.2074 43.3625 24.9098 43.6115C24.4553 43.817 24.0229 43.7882 23.5297 43.7853C23.3662 43.7861 23.3662 43.7861 23.1994 43.7869C22.8386 43.7881 22.4779 43.7873 22.1171 43.7863C21.8653 43.7865 21.6136 43.7868 21.3619 43.7872C20.8334 43.7876 20.305 43.787 19.7766 43.7856C19.1696 43.784 18.5626 43.7845 17.9555 43.7861C17.3684 43.7876 16.7812 43.7874 16.194 43.7866C15.9459 43.7864 15.6978 43.7866 15.4497 43.7873C13.2274 43.7921 11.2992 43.688 9.47249 42.2825C9.32445 42.1768 9.32445 42.1768 9.17342 42.0689C7.72482 40.8091 7.17328 38.9514 7.03109 37.1068C7.01841 36.7643 7.01746 36.4224 7.01803 36.0798C7.01781 35.9811 7.01759 35.8824 7.01736 35.7807C7.01674 35.4524 7.01682 35.1242 7.0169 34.7959C7.01661 34.5596 7.01628 34.3232 7.01591 34.0868C7.01514 33.5128 7.01483 32.9388 7.01477 32.3648C7.01473 31.8977 7.01452 31.4307 7.01422 30.9636C7.01336 29.6366 7.01291 28.3096 7.01298 26.9826C7.01298 26.9112 7.01299 26.8398 7.01299 26.7662C7.01299 26.6947 7.013 26.6232 7.013 26.5496C7.01304 25.3918 7.01211 24.2341 7.01073 23.0763C7.00932 21.8848 7.00865 20.6933 7.00874 19.5018C7.00877 18.8339 7.00851 18.1661 7.00745 17.4983C7.00646 16.8698 7.0065 16.2413 7.00721 15.6127C7.00731 15.383 7.00708 15.1532 7.00649 14.9234C7.00026 12.3396 7.19137 9.96727 9.08187 8.0052C10.4671 6.80302 12.0989 6.23162 13.9181 6.23368Z" fill="#818285"/>
<path d="M42.4805 30.4665C42.793 30.7204 42.9393 30.8666 43.0664 31.2478C43.1155 31.8462 43.0532 32.1384 42.6758 32.6149C42.4551 32.8682 42.2247 33.1111 41.9922 33.3535C41.8603 33.4925 41.7284 33.6316 41.5966 33.7708C41.5313 33.8395 41.466 33.9082 41.3988 33.979C41.1323 34.2606 40.8692 34.5452 40.6067 34.8305C40.5594 34.8818 40.5121 34.9332 40.4634 34.986C40.3219 35.1396 40.1805 35.2933 40.0391 35.447C39.1381 36.4253 38.232 37.3987 37.3235 38.37C36.6574 39.0823 35.9939 39.7965 35.3359 40.5163C34.9627 40.9235 34.5851 41.3265 34.2076 41.7297C33.9215 42.0354 33.6365 42.3421 33.3542 42.6514C33.3009 42.7096 33.2477 42.7679 33.1928 42.8279C33.0924 42.9378 32.9923 43.0479 32.8924 43.1584C32.3791 43.7199 32.3791 43.7199 31.9904 43.7909C31.9012 43.7948 31.8119 43.7987 31.72 43.8027C31.588 43.8119 31.588 43.8119 31.4533 43.8214C30.5633 43.6037 29.7896 42.5004 29.1481 41.861C29.0909 41.8041 29.0337 41.7471 28.9747 41.6885C28.6728 41.388 28.3712 41.0873 28.0698 40.7864C27.7592 40.4763 27.4477 40.1671 27.1359 39.8581C26.8953 39.6193 26.6554 39.3799 26.4156 39.1403C26.301 39.026 26.1862 38.9119 26.071 38.7981C25.9105 38.6392 25.7509 38.4794 25.5915 38.3194C25.4552 38.1836 25.4552 38.1836 25.3161 38.045C25.0307 37.7128 24.9207 37.4464 24.8657 37.0156C24.9284 36.5037 25.1819 36.2244 25.5676 35.8986C25.9434 35.7071 26.1454 35.6814 26.5625 35.7399C27.2504 36.054 27.7287 36.5756 28.2528 37.1087C28.3481 37.2045 28.4434 37.3003 28.5389 37.396C28.7882 37.6464 29.0366 37.8977 29.2849 38.1493C29.539 38.4064 29.794 38.6627 30.0489 38.9191C30.5478 39.4211 31.0457 39.924 31.543 40.4274C31.8361 40.2873 32.0302 40.1558 32.251 39.9159C32.3098 39.8526 32.3686 39.7892 32.4291 39.724C32.4912 39.656 32.5533 39.588 32.6172 39.518C32.6822 39.4477 32.7472 39.3774 32.8142 39.305C33.0094 39.0937 33.204 38.8817 33.3984 38.6696C33.5012 38.5582 33.6041 38.4468 33.707 38.3355C33.8965 38.1306 34.0856 37.9254 34.2747 37.7202C34.5995 37.3679 34.9267 37.0177 35.2539 36.6677C35.6786 36.2133 36.1021 35.7579 36.5234 35.3005C37.0026 34.7803 37.4848 34.263 37.9677 33.7464C38.2862 33.4055 38.6039 33.0638 38.92 32.7207C39.0145 32.6182 39.1091 32.5158 39.2039 32.4136C39.4735 32.1225 39.7402 31.8292 40.0047 31.5335C40.126 31.3996 40.2473 31.2657 40.3687 31.1318C40.4244 31.0685 40.4802 31.0051 40.5376 30.9399C41.1202 30.3014 41.6661 30.1455 42.4805 30.4665Z" fill="#818285"/>
<path d="M17.529 18.713C17.6356 18.7119 17.7422 18.7108 17.8521 18.7096C17.9682 18.7099 18.0842 18.7102 18.2037 18.7105C18.3267 18.7097 18.4496 18.7088 18.5763 18.708C18.9129 18.7058 19.2494 18.7055 19.586 18.7057C19.8673 18.7057 20.1485 18.7049 20.4298 18.7041C21.0935 18.7022 21.7572 18.7019 22.4209 18.7026C23.1049 18.7032 23.7889 18.701 24.473 18.6974C25.0609 18.6944 25.6488 18.6933 26.2368 18.6936C26.5877 18.6939 26.9385 18.6933 27.2894 18.6909C27.6807 18.6883 28.072 18.6897 28.4634 18.6914C28.6371 18.6895 28.6371 18.6895 28.8144 18.6875C29.6897 18.6965 29.6897 18.6965 30.0486 18.988C30.3591 19.3357 30.4561 19.4934 30.4993 19.96C30.4555 20.4685 30.3248 20.7639 29.9467 21.1093C29.475 21.408 28.9244 21.3449 28.3852 21.3411C28.2641 21.3418 28.1431 21.3425 28.0183 21.3432C27.6874 21.3446 27.3566 21.3443 27.0256 21.343C26.6787 21.342 26.3318 21.343 25.9848 21.3436C25.4023 21.3443 24.8198 21.3434 24.2373 21.3415C23.5646 21.3394 22.892 21.3401 22.2193 21.3422C21.6409 21.344 21.0625 21.3442 20.4841 21.3432C20.139 21.3426 19.7939 21.3425 19.4489 21.3438C19.0641 21.3452 18.6793 21.3433 18.2946 21.3411C18.1807 21.3419 18.0668 21.3427 17.9495 21.3435C17.3408 21.3371 16.9642 21.3136 16.5039 20.8999C16.2198 20.559 16.1638 20.269 16.1831 19.825C16.2274 19.5157 16.3301 19.3022 16.5039 19.0445C16.8543 18.7908 17.099 18.7147 17.529 18.713Z" fill="#818285"/>
<path d="M17.7469 27.0101C17.8109 27.0096 17.875 27.009 17.941 27.0085C18.1516 27.0072 18.3621 27.0081 18.5728 27.0091C18.7198 27.0089 18.8668 27.0086 19.0138 27.0082C19.3215 27.0078 19.6291 27.0084 19.9368 27.0098C20.3305 27.0115 20.7242 27.0105 21.1179 27.0087C21.4214 27.0077 21.7248 27.008 22.0283 27.0088C22.1734 27.009 22.3186 27.0087 22.4637 27.008C22.6668 27.0073 22.8698 27.0084 23.073 27.0101C23.2461 27.0104 23.2461 27.0104 23.4227 27.0108C23.8814 27.0663 24.217 27.2806 24.5115 27.6339C24.6738 28.121 24.6905 28.6089 24.4932 29.0866C24.2089 29.4198 23.9519 29.5716 23.5142 29.6262C23.3959 29.6273 23.2777 29.6284 23.1558 29.6296C23.0901 29.6306 23.0245 29.6316 22.9568 29.6326C22.7408 29.6354 22.5249 29.6359 22.3089 29.6362C22.1579 29.6372 22.007 29.6382 21.8561 29.6392C21.54 29.641 21.224 29.6415 20.908 29.6413C20.5041 29.6413 20.1005 29.6453 19.6967 29.6503C19.385 29.6536 19.0734 29.6542 18.7617 29.654C18.6129 29.6544 18.4641 29.6557 18.3153 29.6579C17.0088 29.676 17.0088 29.676 16.5597 29.3082C16.2255 28.9602 16.1762 28.606 16.1832 28.1283C16.2291 27.792 16.3837 27.5939 16.6013 27.3409C16.9892 27.0542 17.2687 27.011 17.7469 27.0101Z" fill="#818285"/>
</svg>
